<?xml version="1.0" encoding="utf-8"?>
<!-- Generator: Adobe Illustrator 19.2.0, SVG Export Plug-In . SVG Version: 6.00 Build 0)  -->
<svg version="1.1" id="Layer_1" xmlns="http://www.w3.org/2000/svg" xmlns:xlink="http://www.w3.org/1999/xlink" x="0px" y="0px"
	 viewBox="0 0 100 100" style="enable-background:new 0 0 100 100;" xml:space="preserve">
<g>
	<path d="M9.1,15.1C6.4,16.6,5,18.4,5,20.6v58.4c0,1,0.2,1.9,0.7,2.8c1.5,2.3,3.3,3.5,5.5,3.5h77.5c1,0,1.8-0.2,2.6-0.7
		c2.4-1.5,3.6-3.3,3.6-5.5V20.9c0-1-0.2-1.9-0.7-2.8c-1.5-2.3-3.3-3.5-5.5-3.5H10.7C10.3,14.7,9.7,14.8,9.1,15.1z M49.9,63.7
		l34.9-27.8h0.2v39.6H15.2V35.9L49.9,63.7z M79.3,25.6L49.9,49c-19.1-15.2-28.8-23-29-23.3H79.3z"/>
</g>
</svg>
