<?xml version="1.0" encoding="utf-8"?>
<!-- Generator: Adobe Illustrator 19.2.0, SVG Export Plug-In . SVG Version: 6.00 Build 0)  -->
<svg version="1.1" id="Layer_1" xmlns="http://www.w3.org/2000/svg" xmlns:xlink="http://www.w3.org/1999/xlink" x="0px" y="0px"
	 viewBox="0 0 100 100" style="enable-background:new 0 0 100 100;" xml:space="preserve">
<g id="AsK6bj.tif">
	<g>
		<path d="M95.1,45.3c0,0.9,0,1.8,0,2.7c0,0.2-0.1,0.3-0.1,0.5c-0.3,2-1,4-2.3,5.6c-0.6,0.7-0.6,1.3-0.4,2.1
			c1.1,3.6,0.6,7.1-1.5,10.3c-0.2,0.3-0.2,0.7-0.2,1.1c0.1,1.2,0.3,2.4,0.2,3.6c-0.2,2.7-1.1,5.2-3,7.3c-0.2,0.2-0.3,0.6-0.4,0.9
			c-0.1,1.3,0,2.6-0.2,3.9c-0.5,3.4-2.2,6.2-5.2,8c-2.1,1.3-4.5,1.9-7,2c-3.3,0.1-6.5,0.1-9.8,0c-1.7,0-3.4-0.2-5.1-0.5
			c-5.4-0.8-10.5-2.5-15.6-4.2c-2.8-1-5.7-2.1-8.7-2.4c-2.2-0.2-3.7-1.9-3.7-4.3c0.1-11.5,0-23.1,0-34.6c0-0.3,0-0.6,0-0.9
			c0.1-1.6,1.4-3.1,2.9-3.3c1-0.2,1.9-0.6,2.5-1.3c2-2.1,3.9-4.2,5.8-6.3c2.5-2.9,4.8-5.9,7.3-8.8c1.5-1.8,2.6-3.8,3.2-6
			c0.5-1.9,0.8-3.8,1.2-5.7c0.5-2.3,1.3-4.5,2.8-6.4c0.8-1,1.7-1.6,3-1.5c2,0,3.9,0.3,5.8,1c3.5,1.3,5.3,4,6.1,7.4
			c0.6,2.4,0.7,4.8,0.5,7.3c-0.2,2.7-1,5.3-2.2,7.7c-0.6,1.2-1.3,2.5-1.9,3.7c-0.2,0.5-0.4,1-0.6,1.6c0.4,0,0.7,0,1,0
			c4.8,0,9.7,0,14.5,0c4.2,0,7.3,2,9.4,5.6C94.4,42.5,94.7,43.9,95.1,45.3z"/>
		<path d="M5.1,45.8c0.5-1,1-2.1,2.1-2.5C7.8,43.1,8.5,43,9.1,43c5.1,0,10.3,0,15.4,0c2.5,0,4,1.5,4,4c0,4.2,0,8.3,0,12.5
			c0,7.5,0,15.1,0,22.6c0,1.6-0.6,3-2.1,3.7c-0.5,0.2-1.1,0.3-1.6,0.3c-5.3,0-10.6,0-15.9,0c-1.7,0-2.9-0.8-3.5-2.3
			c-0.1-0.1-0.2-0.3-0.2-0.4C5.1,70.8,5.1,58.3,5.1,45.8z M12.3,75.4c0,2,1.6,3.6,3.6,3.6c2,0,3.6-1.6,3.6-3.6c0-2-1.6-3.6-3.6-3.7
			C14,71.7,12.3,73.4,12.3,75.4z"/>
	</g>
</g>
</svg>
