<?xml version="1.0" encoding="utf-8"?>
<!-- Generator: Adobe Illustrator 19.2.0, SVG Export Plug-In . SVG Version: 6.00 Build 0)  -->
<svg version="1.1" id="Layer_1" xmlns="http://www.w3.org/2000/svg" xmlns:xlink="http://www.w3.org/1999/xlink" x="0px" y="0px"
	 viewBox="0 0 100 100" style="enable-background:new 0 0 100 100;" xml:space="preserve">
<g>
	<path d="M15.4,5h69.3C90,5,93.5,8.7,95,16v67.4C93.6,91.1,90.1,95,84.6,95H16C8.7,93.5,5,90,5,84.6V15.4C7,8.5,10.4,5,15.4,5z
		 M52.9,30.3v2.6c0,0.9-0.4,1.3-1.3,1.3h-5.8c-0.9,0.1-1.3,0.6-1.3,1.3v7.1h8.4v40.8c0.1,0.8,0.5,1.3,1.3,1.3h13V43.9
		c0.1-0.9,0.5-1.3,1.3-1.3h8.4v-8.4h-8.4c-0.8,0-1.3-0.4-1.3-1.3v-3.2c0-2.3,0.9-3.9,2.6-4.6h5.8c0.9,0,1.3-0.4,1.3-1.3V16
		c0-0.9-0.4-1.3-1.3-1.3h-7.8C57.9,14.7,52.9,19.9,52.9,30.3z"/>
</g>
</svg>
