<?xml version="1.0" encoding="utf-8"?>
<!-- Generator: Adobe Illustrator 19.2.0, SVG Export Plug-In . SVG Version: 6.00 Build 0)  -->
<svg version="1.1" id="Layer_1" xmlns="http://www.w3.org/2000/svg" xmlns:xlink="http://www.w3.org/1999/xlink" x="0px" y="0px"
	 viewBox="0 0 100 100" style="enable-background:new 0 0 100 100;" xml:space="preserve">
<g>
	<path d="M30.2,9.6h4c2.6,0,10.4,1,23.4,3.1c-0.7,0.9-3.5,2.5-8.4,4.8c2.6,3.7,4,7.9,4,12.4c0,4.7-3.1,9.2-9.2,13.7
		c-1.2,1.7-1.8,3-1.8,4c0,1.4,3.7,5.4,11,11.9c2.1,3,3.1,6.1,3.1,9.2c0,10-7.2,16.9-21.6,20.7c-2.4,0.6-4.9,0.9-7.5,0.9h-3.5
		c-9,0-15-3.5-18.1-10.6c-0.3-1.6-0.4-2.9-0.4-4v-0.4c0-8.9,6.9-14.7,20.7-17.7c3.7-0.6,6.3-0.8,7.9-0.8c-1.8-2.5-2.6-4.3-2.6-5.3
		v-3.1c0-0.8,0.3-1.7,0.9-2.6c-0.3,0-0.4-0.2-0.4-0.5c-0.6,0.3-1,0.5-1.3,0.5s-0.5-0.2-0.5-0.5l-1.7,0.5
		C16.8,44,11.2,38.4,11.2,29.1c0-7.6,3.7-13.5,11-17.7C25.4,10.2,28.1,9.6,30.2,9.6z M16,70.9v3.5c0,6.2,4.4,9.3,13.2,9.3h2.6
		c10-1,15-4.5,15-10.6c0.3,0,0.5-0.6,0.5-1.8c0-3.5-3.5-7.5-10.6-11.9c-9.9,0-16.6,3.2-20.3,9.7C16.2,69.7,16,70.3,16,70.9z
		 M22.2,22v2.6c0,5.9,2.5,11.2,7.5,15.9c2,1.5,4.1,2.2,6.2,2.2c4.4-0.7,6.6-3.6,6.6-8.8c-1.8-12.7-6.3-19-13.7-19h-0.4
		C24.3,14.9,22.2,17.3,22.2,22z M76.9,10.5c1.2,0,2.7,0.3,4.4,0.8c0,0.3-0.1,0.5-0.4,0.5l0.4,2.2v13.7C90.4,28.5,95,29.3,95,30v4.4
		c-2.5,0.6-4,0.9-4.4,0.9c-4-0.3-6.9-0.4-8.8-0.4c0-0.3-0.2-0.5-0.5-0.5v15.9c-2.9,0.3-5.1,0.5-6.6,0.5h-0.9c-0.6,0-0.8-0.3-0.8-0.9
		V33.9c-8-0.6-13.1-1-15-1.3v-5.7l2.6-0.9c2,0,6.1,0.3,12.4,0.9V12.3C75.2,11.1,76.5,10.5,76.9,10.5z"/>
</g>
</svg>
