<?xml version="1.0" encoding="utf-8"?>
<!-- Generator: Adobe Illustrator 19.2.0, SVG Export Plug-In . SVG Version: 6.00 Build 0)  -->
<svg version="1.1" id="Layer_1" xmlns="http://www.w3.org/2000/svg" xmlns:xlink="http://www.w3.org/1999/xlink" x="0px" y="0px"
	 viewBox="0 0 100 100" style="enable-background:new 0 0 100 100;" xml:space="preserve">
<g>
	<path d="M5.1,15.8c0,3.2,1.3,5.9,3.8,8.2c2.1,1.7,4.5,2.6,7.1,2.6c3.3,0,6.1-1.4,8.4-4.2c1.5-1.9,2.2-4.1,2.2-6.6
		c0-3.6-1.6-6.6-4.7-9C19.9,5.6,18,5,16,5c-3.3,0-6,1.3-8.3,3.8C6,10.9,5.1,13.2,5.1,15.8z M6.5,34.8L6.3,94.7l18.7,0.1l0.2-59.9
		L6.5,34.8z M54.9,43.2l-0.1,0c-0.1,0-0.1,0-0.1-0.1l0-8.1l-17.8-0.1l-0.2,59.9l18.5,0.1l0.1-27.9c0-5.3,0.4-8.8,1.2-10.6
		c1.6-4.3,4.9-6.5,9.8-6.5l0.1,0l0.1,0l0.3,0l0.1,0c3.8,0,6.4,1.8,7.9,5.3c0.7,1.8,1,3.1,1,3.8c0.2,0.9,0.2,3.9,0.2,8.8l-0.1,27.1
		L94.8,95l0.1-33.4c0-10.2-1.7-17.5-5.3-21.7c-3.5-4.4-9.2-6.5-17.2-6.6c-5,0-9.4,1.6-13.3,4.7c-1.6,1.3-2.5,2.3-2.9,2.9
		C55.7,41.8,55.2,42.5,54.9,43.2z"/>
</g>
</svg>
