<?xml version="1.0" encoding="utf-8"?>
<!-- Generator: Adobe Illustrator 19.2.0, SVG Export Plug-In . SVG Version: 6.00 Build 0)  -->
<svg version="1.1" id="Layer_1" xmlns="http://www.w3.org/2000/svg" xmlns:xlink="http://www.w3.org/1999/xlink" x="0px" y="0px"
	 viewBox="0 0 100 100" style="enable-background:new 0 0 100 100;" xml:space="preserve">
<g>
	<path d="M28.9,11.9c-1.1,0.7-2.6,2-4.5,3.7c-1.8,1.9-3,3.4-3.6,4.5c-3.7,5.5-5.6,11.3-5.6,17.2c0,5.8,1.4,10.7,4.1,14.5
		c0.7,1.1,1.9,2.3,3.4,3.5c2,1.2,3.2,1.9,3.8,1.9h0.3c0.3,0,0.6-0.1,0.9-0.2c0.4-0.4,0.7-0.9,0.8-1.5c0.8-2.8,1.2-4.5,1.2-4.9
		c0-0.3-0.2-0.7-0.7-1.2c-2.5-2.8-3.7-6.4-3.7-10.5c0-5.9,1.8-11.1,5.3-15.7c0.9-1.2,2.2-2.5,3.7-3.8c4.7-3.6,10.1-5.5,16.2-5.5
		c6.3,0,11.4,1.6,15.3,4.9c4.3,3.8,6.5,8.8,6.5,15c0,6.1-1.1,11.7-3.4,16.8c-0.7,1.5-1.4,2.8-2.1,3.9c-3.1,4.5-6.8,6.7-10.9,6.7
		c-2,0-3.8-0.6-5.4-1.8c-2-1.6-3-3.6-3-6V53c0-1.1,0.5-3.4,1.6-7c2-6.4,3.1-10.8,3.1-13.1c0-1.5-0.3-3-0.8-4.3
		c-1.4-2.3-3.4-3.4-6.1-3.4c-2.6,0-4.8,1.1-6.7,3.3c-2.2,2.8-3.3,6.1-3.3,9.9c0,3.1,0.5,5.8,1.6,8.2l-6.1,26.3
		c-0.9,3.5-1.3,7.1-1.3,10.8v1c0,2.9,0.2,6.1,0.5,9.4c0,0.5,0.2,0.8,0.7,1h0.1c0.1,0,0.2,0,0.3,0c0.1-0.3,0.7-1,1.5-2.2
		c2-2.8,3.7-5.3,4.9-7.4c0.9-2,1.9-4.1,2.8-6.5c0.9-3.1,2.1-8.2,3.7-15.2c0.4,0.4,0.8,1,1.4,1.8c0.9,0.9,1.8,1.5,2.4,1.9
		c2.8,1.8,5.8,2.7,8.9,2.7c0.1-0.1,0.3-0.1,0.3-0.1h0.1c2.9,0,5.8-0.5,8.8-1.6c5-2,9.2-5.4,12.5-10.4c4.2-6.7,6.2-14.5,6.2-23.2
		c0-3.4-0.6-6.7-1.8-10.1c-2.6-6.1-6.7-11-12.5-14.6c-5.5-3.4-11.6-5-18.5-5C43.1,5,35.4,7.3,28.9,11.9z"/>
</g>
</svg>
