<?xml version="1.0" encoding="utf-8"?>
<!-- Generator: Adobe Illustrator 19.2.0, SVG Export Plug-In . SVG Version: 6.00 Build 0)  -->
<svg version="1.1" id="Layer_1" xmlns="http://www.w3.org/2000/svg" xmlns:xlink="http://www.w3.org/1999/xlink" x="0px" y="0px"
	 viewBox="0 0 100 100" style="enable-background:new 0 0 100 100;" xml:space="preserve">
<g>
	<path d="M48.8,31.7v0.4c0,1.1,0.2,2.4,0.5,3.9h-0.1c-1.4,0-4-0.3-8-0.9c-3.3-0.8-6.3-1.7-8.9-2.7c-2.8-1.1-5.7-2.7-8.9-4.6
		c-2.4-1.5-5.1-3.7-8.1-6.4c-1.5-1.6-2.9-3.1-4.2-4.5c-1.6,3-2.4,6-2.4,8.9v0.7c0,4,1.4,7.9,4.3,11.6c1.4,1.7,2.7,2.8,3.6,3.3v0.1
		c-2.5,0-5.2-0.8-8.2-2.3v0.5c0,4.8,1.9,9.1,5.6,12.9c2.3,2.1,4.5,3.5,6.5,4.1c1.3,0.5,2.1,0.7,2.5,0.7c0,0.1-0.7,0.3-2.1,0.5
		c-0.8,0.1-1.4,0.2-1.9,0.2h-0.4c-0.1,0-0.2,0-0.3,0h-0.3h-0.1c-0.9,0-1.9-0.1-3.1-0.3c1.5,4.3,4,7.5,7.5,9.7c3.2,2,6.4,3,9.6,3
		c-1.8,1.5-3.5,2.7-5.2,3.5c-5.7,2.9-11.4,4.3-16.9,4.3H8.8c-1.2,0-2.5-0.1-3.8-0.2c3.4,2.3,7.2,4.1,11.3,5.5
		c5.6,1.9,11.3,2.9,17,2.9c9.4,0,18-2.2,25.9-6.5c2.5-1.4,5.3-3.3,8.3-5.9c2.8-2.5,4.8-4.5,5.8-5.9c2.5-3,4.5-6.1,6.2-9.3
		c1.2-2.1,2.3-4.6,3.3-7.4c2-5.9,3-11.5,3-16.7v-2.7v-0.5c1-0.6,2.8-2.1,5.2-4.4c1.7-1.9,3.1-3.5,4-5.1h-0.1c-2.3,1-4.8,1.8-7.2,2.4
		c-1.9,0.3-2.9,0.4-3.1,0.4v-0.1c0.8-0.3,2-1.3,3.8-3c2.1-2.4,3.4-4.8,4.1-7c-2.4,1.4-4.9,2.6-7.5,3.4c-2.3,0.7-3.8,1-4.2,1
		c-1.7-1.7-3-2.7-3.9-3.1c-3-1.8-6.1-2.7-9.4-2.7h-0.1c-4.9,0-9.2,1.8-12.9,5.3C50.7,22.5,48.8,26.8,48.8,31.7z"/>
</g>
</svg>
